<svg t="1734495947707" class="icon" viewBox="0 0 1024 1024" version="1.1" xmlns="http://www.w3.org/2000/svg" p-id="17441" width="200" height="200"><path d="M0 0m273.066667 0l477.866666 0q273.066667 0 273.066667 273.066667l0 477.866666q0 273.066667-273.066667 273.066667l-477.866666 0q-273.066667 0-273.066667-273.066667l0-477.866666q0-273.066667 273.066667-273.066667Z" fill="#AFA3F9" p-id="17442"></path><path d="M819.113 322.57c0-32.957-48.371-31.577-48.371 0v428.443a19.865 19.865 0 0 1-19.873 19.875H315.526c-28.825-0.076-62.43-23.265-62.43-63.732 0-34.49 23.75-63.732 51.782-63.732h396.718c13.341 0 24.158-10.813 24.164-24.156V229.032c0-13.333-10.745-24.232-24.164-24.232H350.262c-80.206 0-145.462 65.264-145.462 145.48v358.093c0 3.553 2.662 23.265 2.749 23.993 10.257 49.682 49.914 86.834 97.395 86.834h446.012c37.663-0.066 68.178-30.585 68.244-68.252V322.57h-0.087z" fill="#FFFFFF" p-id="17443"></path><path d="M692.868 675.84h-331.06c-32.638 0-31.054 40.96 0 40.96h331.06c30.512 0 33.276-40.96 0-40.96z" fill="#DBD5FF" p-id="17444"></path></svg>