<svg t="1734495901423" class="icon" viewBox="0 0 1028 1024" version="1.1" xmlns="http://www.w3.org/2000/svg" p-id="13791" width="200" height="200"><path d="M0 0m273.066667 0l477.866666 0q273.066667 0 273.066667 273.066667l0 477.866666q0 273.066667-273.066667 273.066667l-477.866666 0q-273.066667 0-273.066667-273.066667l0-477.866666q0-273.066667 273.066667-273.066667Z" fill="#52A8FF" p-id="13792"></path><path d="M533.751428 521.97901v182.692654c0 12.281859 7.164418 15.352324 15.864068 6.652674l242.566717-242.566717c8.69965-8.69965 8.69965-23.028486 0-31.728136L549.615496 194.462769c-8.69965-8.69965-15.864068-5.629185-15.864068 6.652673v144.311844c-54.244878 0-133.565217 13.305347-198.044977 63.968016-81.367316 64.47976-102.348826 240.51974-102.348826 240.51974s119.748126-115.142429 298.346827-127.936032h2.046976z m-328.027986 292.717642c0-11.258371 9.211394-20.469765 20.469765-20.469765H797.811398c11.258371 0 20.469765 9.211394 20.469765 20.469765s-9.211394 20.469765-20.469765 20.469765H225.681463c-11.258371 0-19.958021-9.211394-19.958021-20.469765z" fill="#FFFFFF" p-id="13793"></path></svg>